<?xml version="1.0" encoding="UTF-8" standalone="no" ?>
<!DOCTYPE svg PUBLIC "-//W3C//DTD SVG 1.1//EN" "http://www.w3.org/Graphics/SVG/1.1/DTD/svg11.dtd">
<svg xmlns="http://www.w3.org/2000/svg" xmlns:xlink="http://www.w3.org/1999/xlink" version="1.1" width="40" height="50" viewBox="0 0 400 400" xml:space="preserve">
<desc>Created with Fabric.js 3.6.2</desc>
<defs>
</defs>
<g transform="matrix(4.17 0 0 4.17 200 200)"  >
<path style="stroke: none; stroke-width: 1; stroke-dasharray: none; stroke-linecap: butt; stroke-dashoffset: 0; stroke-linejoin: miter; stroke-miterlimit: 4; fill: none; fill-rule: nonzero; opacity: 1;"  transform=" translate(-24, -24)" d="M 0 0 h 48 v 48 H 0 z" stroke-linecap="round" />
</g>
<g transform="matrix(4.17 0 0 4.17 200 200)"  >
<path style="stroke: none; stroke-width: 1; stroke-dasharray: none; stroke-linecap: butt; stroke-dashoffset: 0; stroke-linejoin: miter; stroke-miterlimit: 4; fill: rgb(255,255,255); fill-rule: nonzero; opacity: 1;"  transform=" translate(-24, -24)" d="M 7.8 24 c 0 -3.42 2.78 -6.2 6.2 -6.2 h 8 V 14 h -8 C 8.48 14 4 18.48 4 24 s 4.48 10 10 10 h 8 v -3.8 h -8 c -3.42 0 -6.2 -2.78 -6.2 -6.2 z m 8.2 2 h 16 v -4 H 16 v 4 z m 18 -12 h -8 v 3.8 h 8 c 3.42 0 6.2 2.78 6.2 6.2 s -2.78 6.2 -6.2 6.2 h -8 V 34 h 8 c 5.52 0 10 -4.48 10 -10 s -4.48 -10 -10 -10 z" stroke-linecap="round" />
</g>
</svg>