<?xml version="1.0" encoding="UTF-8" standalone="no" ?>
<!DOCTYPE svg PUBLIC "-//W3C//DTD SVG 1.1//EN" "http://www.w3.org/Graphics/SVG/1.1/DTD/svg11.dtd">
<svg xmlns="http://www.w3.org/2000/svg" xmlns:xlink="http://www.w3.org/1999/xlink" version="1.1" width="400" height="40" viewBox="0 0 400 400" xml:space="preserve">
<desc>Created with Fabric.js 3.6.2</desc>
<defs>
</defs>
<g transform="matrix(10 0 0 10 200 200)"  >
<path style="stroke: none; stroke-width: 1; stroke-dasharray: none; stroke-linecap: butt; stroke-dashoffset: 0; stroke-linejoin: miter; stroke-miterlimit: 4; fill: rgb(255,255,255); fill-rule: evenodd; opacity: 1;"  transform=" translate(-12, -12)" d="M 12 13.5857864 L 14.2928932 11.2928932 L 15.7071068 12.7071068 L 13.4142136 15 L 15.7071068 17.2928932 L 14.2928932 18.7071068 L 12 16.4142136 L 9.70710678 18.7071068 L 8.29289322 17.2928932 L 10.5857864 15 L 8.29289322 12.7071068 L 9.70710678 11.2928932 L 12 13.5857864 Z M 7 4 L 7 3 C 7 1.8954305 7.8954305 1 9 1 L 15 1 C 16.1045695 1 17 1.8954305 17 3 L 17 4 L 20 4 C 21.1045695 4 22 4.8954305 22 6 L 22 8 C 22 9.1045695 21.1045695 10 20 10 L 19.9198662 10 L 19 21 C 19 22.1045695 18.1045695 23 17 23 L 7 23 C 5.8954305 23 5 22.1045695 5.00345424 21.0830455 L 4.07986712 10 L 4 10 C 2.8954305 10 2 9.1045695 2 8 L 2 6 C 2 4.8954305 2.8954305 4 4 4 L 7 4 Z M 7 6 L 4 6 L 4 8 L 20 8 L 20 6 L 17 6 L 7 6 Z M 6.08648886 10 L 7 21 L 17 21 L 17.0034542 20.9169545 L 17.9132005 10 L 6.08648886 10 Z M 15 4 L 15 3 L 9 3 L 9 4 L 15 4 Z" stroke-linecap="round" />
</g>
</svg>