<?xml version="1.0" encoding="UTF-8" standalone="no" ?>
<!DOCTYPE svg PUBLIC "-//W3C//DTD SVG 1.1//EN" "http://www.w3.org/Graphics/SVG/1.1/DTD/svg11.dtd">
<svg xmlns="http://www.w3.org/2000/svg" xmlns:xlink="http://www.w3.org/1999/xlink" version="1.1" width="100" height="100" viewBox="0 0 400 400" xml:space="preserve">
<desc>Created with Fabric.js 3.6.2</desc>
<defs>
</defs>
<g transform="matrix(1.56 0 0 1.56 200 200)" id="Layer_1"  >
<circle style="stroke: none; stroke-width: 1; stroke-dasharray: none; stroke-linecap: butt; stroke-dashoffset: 0; stroke-linejoin: miter; stroke-miterlimit: 4; fill: rgb(178, 102, 255); fill-rule: nonzero; opacity: 1;"  cx="0" cy="0" r="64" />
</g>
<g transform="matrix(1.56 0 0 1.56 200 200)" id="Layer_1"  >
<path style="stroke: none; stroke-width: 1; stroke-dasharray: none; stroke-linecap: butt; stroke-dashoffset: 0; stroke-linejoin: miter; stroke-miterlimit: 4; fill: rgb(231, 219, 219); fill-rule: nonzero; opacity: 1;"  transform=" translate(-64, -64)" d="M 103 57 H 71 V 25 c 0 -0.6 -0.4 -1 -1 -1 H 58 c -0.6 0 -1 0.4 -1 1 v 32 H 25 c -0.6 0 -1 0.4 -1 1 v 12 c 0 0.6 0.4 1 1 1 h 32 v 32 c 0 0.6 0.4 1 1 1 h 12 c 0.6 0 1 -0.4 1 -1 V 71 h 32 c 0.6 0 1 -0.4 1 -1 V 58 C 104 57.4 103.6 57 103 57 z" stroke-linecap="round" />
</g>
</svg>